<svg width="200" height="181" viewBox="0 0 200 181" fill="none" xmlns="http://www.w3.org/2000/svg">
<path d="M183.333 63.3333C181.333 63.3333 180 64.6665 180 66.6665V69.9997C180 71.9997 181.333 73.3329 183.333 73.3329C185.333 73.3329 186.666 71.9997 186.666 69.9997V66.6665C186.667 64.6665 185.333 63.3333 183.333 63.3333Z" fill="#F67796"/>
<path d="M183.333 36.3332C181.333 36.3332 180 37.6664 180 39.6664V47.3332C180 49.3332 181.333 50.6664 183.333 50.6664C185.333 50.6664 186.666 48.9996 186.666 47.3332V39.6664C186.667 37.6664 185.333 36.3332 183.333 36.3332Z" fill="#F67796"/>
<path d="M180 20C180 22 181.333 23.3332 183.333 23.3332C185.333 23.3332 186.666 22 186.666 20V13.3332H180C178 13.3332 176.667 14.6664 176.667 16.6664C176.667 18.6664 178 20 180 20Z" fill="#F67796"/>
<path d="M61 20H67.6668C69.3336 20 71 18.6668 71 16.6668C71 14.6668 69.6668 13.3336 67.6668 13.3336H61C59 13.3336 57.6668 14.6668 57.6668 16.6668C57.6668 18.6668 59 20 61 20Z" fill="#F67796"/>
<path d="M84.6668 20H91.3336C93.3336 20 94.6668 18.6668 94.6668 16.6668C94.6668 14.6668 93.3336 13.3336 91.3336 13.3336H84.6668C82.6668 13.3336 81.3336 14.6668 81.3336 16.6668C81.3336 18.6668 82.6668 20 84.6668 20Z" fill="#F67796"/>
<path d="M37 20H43.6668C45.6668 20 47 18.6668 47 16.6668C47 14.6668 45.6668 13.3336 43.6668 13.3336H37C35 13.3336 33.6668 14.6668 33.6668 16.6668C33.6668 18.6668 35 20 37 20Z" fill="#F67796"/>
<path d="M132.333 20H139C141 20 142.333 18.6668 142.333 16.6668C142.333 14.6668 141 13.3336 139 13.3336H132.333C130.333 13.3336 129 14.6668 129 16.6668C129 18.6668 130.333 20 132.333 20Z" fill="#F67796"/>
<path d="M108.667 20H115.334C117 20 118.667 18.6668 118.667 16.6668C118.667 14.6668 117.334 13.3336 115.334 13.3336H108.667C106.667 13.3336 105.334 14.6668 105.334 16.6668C105.334 18.6668 106.667 20 108.667 20Z" fill="#F67796"/>
<path d="M156.333 20H163C164.667 20 166.333 18.6668 166.333 16.6668C166.333 14.6668 165 13.3336 163 13.3336H156.333C154.333 13.3336 153 14.6668 153 16.6668C153 18.6668 154.333 20 156.333 20Z" fill="#F67796"/>
<path d="M16.6668 23.3332C18.6668 23.3332 20 22 20 20C22 20 23.3332 18.6668 23.3332 16.6668C23.3332 14.6668 22 13.3336 20 13.3336H13.3332V20.0004C13.3332 22 14.6668 23.3332 16.6668 23.3332Z" fill="#F67796"/>
<path d="M16.6668 95.3332C18.6668 95.3332 20 94 20 92V85C20 83 18.6668 81.6668 16.6668 81.6668C14.6668 81.6668 13.3336 83 13.3336 85V92C13.3332 94 14.6668 95.3332 16.6668 95.3332Z" fill="#F67796"/>
<path d="M16.6668 71.3332C18.6668 71.3332 20 69.9999 20 67.9999V60.9999C20 58.9999 18.6668 57.6667 16.6668 57.6667C14.6668 57.6667 13.3336 58.9999 13.3336 60.9999V67.9999C13.3332 69.9999 14.6668 71.3332 16.6668 71.3332Z" fill="#F67796"/>
<path d="M16.6668 47.3332C18.6668 47.3332 20 46 20 44V37C20 35 18.6668 33.6668 16.6668 33.6668C14.6668 33.6668 13.3336 35 13.3336 37V44C13.3332 46 14.6668 47.3332 16.6668 47.3332Z" fill="#F67796"/>
<path d="M16.6668 119.666C18.6668 119.666 20 118 20 116.333V109.333C20 107.333 18.6668 106 16.6668 106C14.6668 106 13.3336 107.333 13.3336 109.333V116.333C13.3332 118.333 14.6668 119.666 16.6668 119.666Z" fill="#F67796"/>
<path d="M23.3332 136.666C23.3332 134.666 22 133.333 20 133.333C20 131.333 18.6668 130 16.6668 130C14.6668 130 13.3336 131.333 13.3336 133.333V140H20C22 140 23.3332 138.666 23.3332 136.666Z" fill="#F67796"/>
<path d="M66.6668 133.333H60C58 133.333 56.6668 134.666 56.6668 136.666C56.6668 138.666 58 140 60 140H66.6668C68.6668 140 70 138.666 70 136.666C70 134.666 68.6668 133.333 66.6668 133.333Z" fill="#F67796"/>
<path d="M36.6668 140H43.3336C45.3336 140 46.6668 138.667 46.6668 136.667C46.6668 134.667 45.3336 133.334 43.3336 133.334H36.6668C34.6668 133.334 33.3336 134.667 33.3336 136.667C33.3336 138.667 34.6668 140 36.6668 140Z" fill="#F67796"/>
<path d="M90 133.333H83.3332C81.3332 133.333 80 134.666 80 136.666C80 138.666 81.3332 140 83.3332 140H90C92 140 93.3332 138.666 93.3332 136.666C93.3332 134.666 92 133.333 90 133.333Z" fill="#F67796"/>
<path d="M110 133.333H106.667C104.667 133.333 103.334 134.666 103.334 136.666C103.334 138.666 104.667 140 106.667 140H110C112 140 113.333 138.666 113.333 136.666C113.333 134.666 112 133.333 110 133.333Z" fill="#F67796"/>
<path d="M200 0H0V153.333H126.667V176.666C126.667 178 127.334 179.333 128.667 179.666C130 180.333 131.334 180 132.334 179L150 161.333L167.667 179C168.334 179.667 169 180 170 180C170.333 180 171 180 171.333 179.667C172.666 179.334 173.333 178 173.333 176.667V153.334H200V0ZM166.667 168.666L152.334 154.333C151.667 153.666 151 153.333 150 153.333C149 153.333 148.334 153.666 147.667 154.333L133.334 168.666V153.333V132.333C143.334 138.333 156.667 138.333 166.667 132.333V153.333V168.666H166.667ZM155.558 129.409C155.406 129.441 155.254 129.472 155.101 129.502C154.88 129.545 154.657 129.584 154.434 129.621C154.21 129.659 153.985 129.696 153.76 129.728C153.584 129.753 153.407 129.774 153.229 129.796C152.988 129.825 152.746 129.855 152.504 129.878C152.297 129.897 152.089 129.911 151.88 129.925C151.675 129.94 151.47 129.957 151.264 129.968C150.845 129.987 150.424 130 150 130C149.578 130 149.159 129.987 148.743 129.968C148.507 129.957 148.273 129.937 148.038 129.92C147.872 129.907 147.706 129.897 147.542 129.882C147.216 129.851 146.892 129.813 146.568 129.77C146.51 129.763 146.453 129.756 146.396 129.748C145.627 129.641 144.862 129.502 144.104 129.327C143.716 129.238 143.33 129.14 142.946 129.034C142.177 128.821 141.417 128.573 140.667 128.292C139.917 128.011 139.178 127.696 138.451 127.348C138.2 127.227 137.953 127.098 137.705 126.97C137.579 126.903 137.449 126.842 137.323 126.773C137.313 126.768 137.302 126.761 137.291 126.755C128.994 122.221 123.334 113.407 123.334 103.334C123.334 88.6672 135.334 76.6672 150.001 76.6672C164.668 76.6672 176.668 88.6672 176.668 103.334C176.667 116.095 167.58 126.834 155.558 129.409ZM193.333 146.666H173.333V127.073C179.495 121.016 183.333 112.603 183.333 103.333C183.333 85 168.333 70 150 70C131.667 70 116.667 85 116.667 103.333C116.667 112.603 120.505 121.016 126.667 127.073V146.666H6.6668V6.66641H193.334V146.666H193.333Z" fill="#F67796"/>
<path d="M156.667 43.3332H43.3332C41.3332 43.3332 40 44.6664 40 46.6664C40 48.6664 41.3332 49.9996 43.3332 49.9996H156.666C158.666 49.9996 160 48.6664 160 46.6664C160 44.6664 158.667 43.3332 156.667 43.3332Z" fill="#F67796"/>
<path d="M116.667 63.3333H43.3332C41.3332 63.3333 40 64.6665 40 66.6665C40 68.6665 41.3332 69.9997 43.3332 69.9997H116.666C118.666 69.9997 120 68.6665 120 66.6665C120 64.6665 118.667 63.3333 116.667 63.3333Z" fill="#F67796"/>
<path d="M43.3332 90H106.666C108.666 90 110 88.6668 110 86.6668C110 84.6668 108.666 83.3336 106.666 83.3336H43.3332C41.3332 83.3336 40 84.6668 40 86.6668C40 88.6668 41.3332 90 43.3332 90Z" fill="#F67796"/>
<path d="M43.3332 113.333H106.666C108.666 113.333 110 112 110 110C110 108 108.666 106.667 106.666 106.667H43.3332C41.3332 106.667 40 108 40 110C40 112 41.3332 113.333 43.3332 113.333Z" fill="#F67796"/>
</svg>
