<svg width="80" height="65" viewBox="0 0 80 65" fill="none" xmlns="http://www.w3.org/2000/svg">
<path d="M36.9491 8.12459C33.0159 12.5905 29.7664 16.2388 29.7273 16.2233C29.6817 16.213 25.4359 14.1378 20.285 11.6125C15.1275 9.08712 10.8687 7.01199 10.8166 7.00681C10.7515 6.99129 8.9737 8.97327 5.33351 13.108C2.37708 16.4717 -0.0258381 19.2299 0.00020979 19.2403C0.0327696 19.2454 2.25986 19.0333 4.96233 18.759C14.8931 17.7603 14.7889 17.7706 14.841 17.8379C14.8735 17.8741 15.7982 20.3063 16.9053 23.2405L18.9175 28.5758L21.4897 30.1904C23.6452 31.541 33.0224 37.4197 36.9296 39.8674C50.4093 48.3128 49.2111 47.547 49.1851 47.6712C49.1786 47.7281 48.866 48.8096 48.4883 50.0775C48.1041 51.3453 47.8045 52.3907 47.8176 52.3958C47.8306 52.401 50.1358 53.85 52.949 55.6146C55.7622 57.3741 60.0014 60.034 62.3718 61.5192C64.7422 63.0044 66.7283 64.236 66.7869 64.2515C66.839 64.2722 66.8846 64.2619 66.8846 64.2308C66.8846 64.1791 66.4092 62.756 65.3543 59.6407C65.0547 58.7558 64.677 57.6277 64.5142 57.1309C64.3449 56.6341 64.1561 56.0597 64.091 55.863C63.9086 55.3248 63.7002 54.7038 63.049 52.784C62.73 51.8318 62.4044 50.8692 62.3327 50.6467C62.2546 50.4294 62.1374 50.0671 62.0592 49.8446C61.9876 49.6273 61.6685 48.6751 61.3494 47.7384C61.0303 46.7966 60.7113 45.8496 60.6396 45.6271C60.5615 45.4097 60.4443 45.0527 60.3726 44.8405C60.301 44.6283 60.1838 44.2712 60.1056 44.0487C60.034 43.8314 59.7149 42.8792 59.3958 41.9425C59.0767 41.0007 58.7577 40.0537 58.686 39.8364C58.6079 39.6138 58.4907 39.2516 58.4125 39.0343C58.3409 38.8117 58.0218 37.8596 57.7027 36.9229C57.3836 35.9811 57.0645 35.0289 56.9864 34.8012C56.9083 34.5735 56.8106 34.2682 56.7585 34.1285C56.6673 33.8438 55.4235 30.1593 55.2217 29.5745C55.1565 29.3727 55.0524 29.0674 54.9937 28.8915L54.8896 28.5654L67.4186 14.35C74.3082 6.52555 79.9736 0.09832 79.9997 0.0620956C80.0388 0.0155258 76.4376 0 62.0723 0H44.0992L36.9491 8.12459Z" fill="#820CE1"/>
</svg>
