<svg width="200" height="212" viewBox="0 0 200 212" fill="none" xmlns="http://www.w3.org/2000/svg">
<path d="M15 198.919C15 202.345 24.4413 205.631 41.247 208.053C58.0526 210.476 80.846 211.837 104.613 211.837C128.38 211.837 151.173 210.476 167.979 208.053C184.784 205.631 194.226 202.345 194.226 198.919C194.226 195.492 184.784 192.206 167.979 189.784C151.173 187.361 128.38 186 104.613 186C80.846 186 58.0526 187.361 41.247 189.784C24.4413 192.206 15 195.492 15 198.919V198.919Z" fill="url(#paint0_radial_11_923)"/>
<g filter="url(#filter0_b_11_923)">
<path d="M43.2195 186.708H156.78V199H43.2195V186.708Z" fill="#7BBEC8" stroke="#820CE1" stroke-width="2"/>
<path d="M59.5586 151.491H140.278V176.641H59.5586V151.491Z" fill="#7BBEC8" stroke="#820CE1" stroke-width="2"/>
<path d="M199 141.547H1V1H199V141.547ZM185.094 132.45C187.858 132.45 190.066 130.241 190.066 127.477V15.0696C190.066 12.306 187.858 10.0975 185.094 10.0975H14.9058C12.1422 10.0975 9.93366 12.306 9.93366 15.0696V127.477C9.93366 130.241 12.1422 132.45 14.9058 132.45H185.094Z" fill="#7BBEC8" stroke="#820CE1" stroke-width="2"/>
<path d="M107.33 36.7066L107.337 36.6945C107.815 35.7383 108.754 35.036 109.992 35.036H117.035C119.19 35.036 120.672 37.3031 119.742 39.286L88.662 105.829L88.6563 105.841L88.6504 105.853C88.1723 106.809 87.2334 107.511 85.9951 107.511H78.9517C76.8213 107.511 75.3638 105.23 76.2846 103.263L107.33 36.7066ZM107.33 36.7066L107.325 36.7189L76.2854 103.261L107.33 36.7066ZM127.509 76.8559L127.483 76.868L127.457 76.8818C126.838 77.2121 126.279 77.7884 126.003 78.525H125.781V79.525V87.7969C125.781 89.8679 127.921 91.2674 129.821 90.3837C129.823 90.3831 129.824 90.3826 129.825 90.382L163.563 74.8643L163.59 74.852L163.616 74.8381C164.494 74.3698 165.251 73.4077 165.251 72.1949V63.3087C165.251 62.0704 164.548 61.1315 163.592 60.6535L163.579 60.6471L163.566 60.6411L129.837 44.9635C129.834 44.9623 129.832 44.9611 129.829 44.9599C127.978 44.0723 125.822 45.4183 125.822 47.502V55.5282C125.822 56.7665 126.525 57.7054 127.481 58.1835L127.498 58.192L127.515 58.1998L147.922 67.452L127.509 76.8559ZM36.5568 60.6818L36.5317 60.6935L36.5073 60.7065C35.6292 61.1748 34.8722 62.1369 34.8722 63.3497H35.8722C34.8722 63.3497 34.8722 63.3497 34.8722 63.3498V63.3501V63.3506V63.3513V63.3523V63.3534V63.3547V63.3563V63.358V63.36V63.3621V63.3644V63.367V63.3697V63.3726V63.3758V63.3791V63.3826V63.3863V63.3902V63.3943V63.3986V63.4031V63.4077V63.4126V63.4176V63.4229V63.4283V63.4339V63.4397V63.4456V63.4518V63.4581V63.4646V63.4713V63.4782V63.4853V63.4925V63.4999V63.5075V63.5152V63.5232V63.5313V63.5396V63.548V63.5566V63.5654V63.5744V63.5835V63.5929V63.6023V63.612V63.6218V63.6317V63.6419V63.6522V63.6626V63.6732V63.684V63.695V63.7061V63.7173V63.7287V63.7403V63.752V63.7639V63.776V63.7882V63.8005V63.813V63.8257V63.8385V63.8514V63.8645V63.8778V63.8911V63.9047V63.9184V63.9322V63.9462V63.9603V63.9745V63.9889V64.0035V64.0182V64.033V64.0479V64.063V64.0783V64.0936V64.1091V64.1248V64.1405V64.1564V64.1725V64.1886V64.2049V64.2214V64.2379V64.2546V64.2714V64.2883V64.3054V64.3226V64.3399V64.3573V64.3749V64.3925V64.4103V64.4282V64.4463V64.4644V64.4827V64.5011V64.5196V64.5382V64.5569V64.5757V64.5947V64.6137V64.6329V64.6522V64.6716V64.6911V64.7107V64.7304V64.7502V64.7701V64.7902V64.8103V64.8305V64.8509V64.8713V64.8918V64.9125V64.9332V64.954V64.975V64.996V65.0171V65.0383V65.0596V65.081V65.1025V65.1241V65.1458V65.1675V65.1894V65.2113V65.2333V65.2554V65.2776V65.2999V65.3223V65.3447V65.3673V65.3899V65.4126V65.4353V65.4582V65.4811V65.5041V65.5272V65.5503V65.5736V65.5969V65.6203V65.6437V65.6672V65.6908V65.7145V65.7382V65.762V65.7859V65.8098V65.8338V65.8579V65.882V65.9062V65.9305V65.9548V65.9792V66.0036V66.0281V66.0527V66.0773V66.1019V66.1267V66.1514V66.1763V66.2012V66.2261V66.2511V66.2762V66.3013V66.3264V66.3516V66.3768V66.4021V66.4275V66.4528V66.4783V66.5037V66.5293V66.5548V66.5804V66.606V66.6317V66.6574V66.6832V66.709V66.7348V66.7607V66.7866V66.8125V66.8385V66.8645V66.8905V66.9166V66.9427V66.9688V66.9949V67.0211V67.0473V67.0735V67.0998V67.1261V67.1524V67.1787V67.2051V67.2314V67.2578V67.2842V67.3106V67.3371V67.3636V67.39V67.4165V67.443V67.4696V67.4961V67.5226V67.5492V67.5758V67.6024V67.6289V67.6555V67.6821V67.7088V67.7354V67.762V67.7886V67.8153V67.8419V67.8685V67.8951V67.9218V67.9484V67.975V68.0017V68.0283V68.0549V68.0815V68.1081V68.1348V68.1613V68.1879V68.2145V68.2411V68.2676V68.2942V68.3207V68.3473V68.3738V68.4003V68.4267V68.4532V68.4796V68.5061V68.5325V68.5589V68.5852V68.6116V68.6379V68.6642V68.6905V68.7168V68.743V68.7692V68.7954V68.8215V68.8476V68.8737V68.8998V68.9258V68.9518V68.9778V69.0037V69.0296V69.0555V69.0813V69.1071V69.1329V69.1586V69.1842V69.2099V69.2355V69.261V69.2866V69.312V69.3375V69.3628V69.3882V69.4135V69.4387V69.4639V69.489V69.5141V69.5392V69.5642V69.5891V69.614V69.6388V69.6636V69.6884V69.713V69.7376V69.7622V69.7867V69.8111V69.8355V69.8598V69.8841V69.9083V69.9324V69.9565V69.9805V70.0044V70.0283V70.0521V70.0758V70.0995V70.1231V70.1466V70.17V70.1934V70.2167V70.2399V70.2631V70.2862V70.3092V70.3321V70.355V70.3777V70.4004V70.423V70.4456V70.468V70.4904V70.5127V70.5348V70.557V70.579V70.6009V70.6228V70.6445V70.6662V70.6878V70.7093V70.7307V70.752V70.7732V70.7943V70.8153V70.8363V70.8571V70.8778V70.8985V70.919V70.9394V70.9598V70.98V71.0001V71.0201V71.0401V71.0599V71.0796V71.0992V71.1187V71.1381V71.1574V71.1765V71.1956V71.2146V71.2334V71.2521V71.2707V71.2892V71.3076V71.3259V71.344V71.3621V71.38V71.3978V71.4154V71.433V71.4504V71.4677V71.4849V71.502V71.5189V71.5357V71.5524V71.5689V71.5854V71.6016V71.6178V71.6338V71.6497V71.6655V71.6812V71.6967V71.712V71.7273V71.7423V71.7573V71.7721V71.7868V71.8013V71.8157V71.83V71.8441V71.8581V71.8719V71.8856V71.8991V71.9125V71.9258V71.9389V71.9518V71.9646V71.9773V71.9898V72.0021V72.0143V72.0264V72.0382V72.05V72.0616V72.073V72.0842V72.0953V72.1063V72.1171V72.1277V72.1381V72.1484V72.1586V72.1685V72.1783V72.188V72.1974V72.2067V72.2159V72.2248V72.2336V72.2423V72.2507V72.259V72.2671V72.2751V72.2828V72.2904V72.2978V72.305V72.3121V72.319V72.3257V72.3322V72.3385V72.3447V72.3506V72.3564V72.362V72.3674V72.3727V72.3777V72.3825V72.3872V72.3917V72.396V72.4001V72.404V72.4077V72.4112V72.4145V72.4176V72.4206V72.4233V72.4259V72.4282V72.4303V72.4323V72.434V72.4356V72.4369V72.438V72.4389V72.4397V72.4402V72.4405C34.8722 72.4406 34.8722 72.4406 35.8722 72.4406H34.8722C34.8722 73.6789 35.5745 74.6178 36.5307 75.0959L36.5454 75.1033L36.5604 75.1102L70.3388 90.6277C70.3398 90.6282 70.3409 90.6287 70.3419 90.6292C72.2468 91.5155 74.3415 90.1086 74.3415 88.0835V79.7297C74.3415 78.4914 73.6392 77.5525 72.6831 77.0744L72.6688 77.0673L72.6543 77.0606L52.2419 67.6567L72.6488 58.4046L72.6781 58.3913L72.7065 58.3762C73.5845 57.9079 74.3415 56.9458 74.3415 55.733V47.543C74.3415 45.5186 72.2026 44.1054 70.3343 45.0009L36.5568 60.6818ZM180.122 20.0417V122.505H19.878V20.0417H180.122Z" fill="#7BBEC8" stroke="#820CE1" stroke-width="2"/>
</g>
<defs>
<filter id="filter0_b_11_923" x="-4" y="-4" width="208" height="208" filterUnits="userSpaceOnUse" color-interpolation-filters="sRGB">
<feFlood flood-opacity="0" result="BackgroundImageFix"/>
<feGaussianBlur in="BackgroundImage" stdDeviation="2"/>
<feComposite in2="SourceAlpha" operator="in" result="effect1_backgroundBlur_11_923"/>
<feBlend mode="normal" in="SourceGraphic" in2="effect1_backgroundBlur_11_923" result="shape"/>
</filter>
<radialGradient id="paint0_radial_11_923" cx="0" cy="0" r="1" gradientUnits="userSpaceOnUse" gradientTransform="translate(104.613 198.919) rotate(180) scale(89.6128 12.9186)">
<stop stop-opacity="0.321429"/>
<stop offset="1" stop-opacity="0.0714286"/>
</radialGradient>
</defs>
</svg>
