<svg width="800" height="734" viewBox="0 0 800 734" fill="none" xmlns="http://www.w3.org/2000/svg">
<g clip-path="url(#clip0_17_4)">
<path d="M787.914 98.9995C781.399 101.081 770.072 107.869 756.842 117.629C743.761 127.291 728.676 139.331 694.697 167.177C609.097 237.336 557.978 276.627 497.487 318.891C484.006 328.256 450.929 350.75 450.528 350.75C450.427 350.75 450.377 349.115 450.377 347.133C450.377 344.161 450.127 343.17 449.024 341.287C447.32 338.413 444.013 335.44 442.108 335.044L440.655 334.796L444.514 330.981C452.031 323.747 455.69 316.959 458.897 304.374C458.997 304.077 460.351 303.383 462.004 302.739C473.882 298.28 481.199 288.915 481.199 278.163C481.199 271.128 478.894 265.727 473.682 260.524C467.217 254.083 457.995 251.606 447.571 253.588L444.263 254.232L440.304 251.061C438.099 249.376 435.793 247.592 435.092 247.147L433.839 246.304L435.743 244.521C442.108 238.377 441.707 227.278 434.891 220.044C431.333 216.278 428.777 215.238 423.064 215.238C418.603 215.238 418.102 215.337 415.195 216.923C411.336 218.954 407.878 222.521 406.124 226.287C404.972 228.715 404.771 229.805 404.771 233.67V238.228L402.015 238.525C393.996 239.368 387.481 241.25 382.018 244.273C372.746 249.475 365.279 257.502 359.967 267.907C358.814 270.137 357.812 271.97 357.711 271.97C357.611 271.97 356.559 271.623 355.356 271.227C352.249 270.137 342.626 267.758 336.362 266.569C329.646 265.231 320.374 264.191 311.754 263.745L304.938 263.398L305.69 260.97C306.743 257.403 306.292 247.989 304.888 243.728C301.681 234.116 294.013 226.485 283.99 223.116C280.682 222.026 279.078 221.778 274.718 221.729C268.904 221.679 265.496 222.323 260.936 224.404C243.144 232.381 236.479 256.263 247.705 271.722C248.607 272.961 249.209 274.051 249.108 274.15C249.008 274.249 246.753 275.24 244.147 276.429C213.475 289.906 186.913 316.513 172.53 348.124C147.07 404.113 156.643 467.98 198.24 519.46C203.402 525.851 216.883 539.179 223.398 544.283C248.557 564.151 274.066 575.2 304.788 579.462C313.458 580.7 334.758 580.7 344.631 579.511C363.876 577.133 380.565 572.327 395.9 564.597C419.205 552.855 438.7 533.828 451.38 510.491L453.284 506.924L463.107 506.676C472.028 506.478 473.481 506.329 478.794 504.942C495.533 500.631 508.613 491.019 516.08 477.493C517.534 474.916 518.236 474.124 519.037 474.124C519.639 474.124 520.741 473.678 521.493 473.083C523.097 471.844 523.197 469.912 521.744 468.376L520.691 467.286L521.744 463.124C524.851 450.688 524.25 436.17 520.24 425.914C519.689 424.626 519.288 423.387 519.288 423.139C519.288 422.941 520.491 422.594 521.994 422.446C529.762 421.653 536.027 414.419 535.175 407.185C534.574 402.478 531.416 398.167 526.906 395.987C524.55 394.848 523.398 394.6 520.29 394.649C514.377 394.649 510.167 397.077 507.711 401.883L506.709 403.816L504.052 401.437C500.745 398.415 494.23 394.104 488.616 391.132L484.306 388.852L485.76 384.789C486.612 382.56 488.065 378.844 489.068 376.515C490.02 374.186 491.072 371.709 491.373 370.966C491.824 369.925 492.175 369.677 493.027 369.876C495.132 370.421 496.585 367.497 494.981 365.912C494.28 365.268 494.43 364.822 496.034 361.799C500.895 352.881 508.212 342.872 528.81 317.108L534.072 310.518L550.611 297.784C595.215 263.448 624.583 242.241 719.003 176.195C773.931 137.746 794.68 120.355 798.89 109.206C800.243 105.688 800.193 103.855 798.839 101.477C796.935 98.1077 793.276 97.2654 787.914 98.9995ZM521.142 323.846C510.818 336.927 493.378 361.056 487.263 370.668C484.657 374.781 484.006 375.078 486.261 371.164C497.587 351.394 512.973 327.711 516.532 324.441C519.138 322.062 526.555 316.166 526.956 316.117C527.156 316.067 524.55 319.585 521.142 323.846ZM503.15 338.71C497.186 347.183 481.7 370.173 475.636 379.637C473.581 382.808 471.677 385.334 471.376 385.235C471.025 385.087 469.171 384.839 467.217 384.641L463.658 384.294L465.863 382.857C470.324 379.983 473.581 375.375 474.935 370.123C475.787 367.002 475.686 365.813 474.383 360.164C474.133 359.025 475.486 357.786 489.519 346.291C497.988 339.354 505.606 333.062 506.458 332.319C507.31 331.575 508.162 330.931 508.362 330.931C508.513 330.931 506.207 334.449 503.15 338.71Z" fill="#7BBEC8"/>
<path d="M480.698 168.316C476.237 169.803 473.631 171.339 470.875 174.163C464.811 180.307 463.357 188.482 466.765 197.549C468.419 202.009 470.324 205.13 475.085 210.927C476.237 212.364 477.19 213.9 477.19 214.297C477.19 215.882 479.946 220.292 482.502 222.72C488.416 228.418 496.685 230.697 502.95 228.368C510.417 225.593 514.376 218.112 512.823 209.788C512.522 208.153 511.369 204.982 510.217 202.702C508.463 199.284 508.162 198.293 508.413 196.559C508.813 193.586 507.911 186.005 506.709 182.338C504.754 176.244 500.594 171.438 495.332 169.01C491.573 167.326 484.707 166.979 480.698 168.316Z" fill="#7BBEC8"/>
<path d="M393.244 192.397C391.039 193.387 389.636 195.122 388.934 197.698C388.383 199.68 388.433 200.324 389.185 202.306C392.292 210.382 404.019 208.252 404.019 199.581C404.019 196.955 402.816 194.428 400.862 193.09C399.008 191.802 395.299 191.455 393.244 192.397Z" fill="#7BBEC8"/>
<path d="M545.599 229.309C543.344 230.647 542.442 231.886 541.941 234.215C541.089 237.782 542.592 241.597 545.399 243.034C547.353 244.025 551.613 243.926 553.468 242.836C556.775 240.953 557.978 235.107 555.723 231.787C553.568 228.566 548.706 227.377 545.599 229.309Z" fill="#7BBEC8"/>
<path d="M582.435 326.422C577.323 329.098 577.423 337.026 582.585 339.701C586.043 341.485 590.804 340.345 593.16 337.224C594.714 335.192 594.613 330.733 593.01 328.503C590.855 325.531 585.943 324.54 582.435 326.422Z" fill="#7BBEC8"/>
<path d="M658.963 331.625C654.754 333.161 651.095 336.679 649.592 340.593L649.09 341.931L647.637 339.949C643.527 334.4 633.003 333.508 627.841 338.264C622.629 343.12 622.729 353.327 628.041 359.322C630.698 362.295 634.106 363.682 638.616 363.682C643.978 363.682 648.589 361.205 650.093 357.637C650.694 356.3 651.596 355.655 651.596 356.646C651.596 356.894 652.599 358.133 653.851 359.421C660.266 365.912 670.641 366.506 676.655 360.709C680.063 357.439 681.315 353.822 681.065 348.273C680.714 341.188 677.106 335.391 671.192 332.368C668.385 330.931 661.87 330.535 658.963 331.625Z" fill="#7BBEC8"/>
<path d="M526.956 347.53C525.352 348.62 524.65 351.494 525.502 353.426C526.404 355.606 527.507 356.349 529.863 356.349C532.168 356.349 534.072 354.863 534.574 352.732C534.974 350.998 533.772 348.025 532.418 347.332C530.915 346.539 528.209 346.687 526.956 347.53Z" fill="#7BBEC8"/>
<path d="M646.234 375.276C643.377 376.465 641.974 379.934 643.076 383.154C644.179 386.474 648.288 388.159 651.696 386.771C654.052 385.78 655.255 383.898 655.255 381.222C655.255 378.447 654.052 376.664 651.446 375.475C648.94 374.385 648.338 374.335 646.234 375.276Z" fill="#7BBEC8"/>
<path d="M620.373 415.162C617.366 415.955 614.81 417.441 612.806 419.671C609.999 422.693 608.847 425.616 608.596 430.274C608.245 437.211 611.052 442.661 616.564 445.634C620.023 447.467 626.437 447.962 630.447 446.674C643.427 442.413 644.279 422 631.75 416.302C628.743 414.964 623.43 414.419 620.373 415.162Z" fill="#7BBEC8"/>
<path d="M569.405 490.92C559.983 493.794 555.272 504.744 559.481 513.861C561.185 517.577 563.441 519.905 566.798 521.541C569.354 522.779 570.206 522.928 574.416 522.928C578.576 522.878 579.478 522.73 581.733 521.59C585.392 519.707 588.249 516.288 589.451 512.374C590.754 508.311 590.704 505.289 589.401 501.077C587.998 496.618 583.989 492.456 579.929 491.267C577.173 490.425 571.61 490.276 569.405 490.92Z" fill="#7BBEC8"/>
</g>
<path d="M388.127 141.546C386.752 125.713 381.166 114.174 371.523 107.222C361.308 99.8759 346.859 98.2072 329.735 102.416C327.387 102.978 324.871 102.559 322.825 101.234C320.872 99.985 319.571 98.0805 319.161 95.8841C311.362 54.457 279.797 24.7373 227.871 9.91963C189.866 -0.915968 154.602 -0.00202843 153.555 0.0323672C148.666 -0.0600096 33.803 -1.86332 3.41991 54.7676C2.31336 56.847 2.26225 59.3628 3.05139 61.5857C3.83954 63.8165 5.66742 65.6611 7.8481 66.5751C8.18322 66.7176 40.9308 81.7288 36.4525 187.425C36.2933 189.128 36.2264 190.855 36.2176 192.583C36.2176 192.675 36.2009 192.784 36.2009 192.885L35.9749 269.331C35.9749 326.608 41.602 384.949 82.4079 423.692C88.9156 429.872 95.9097 435.39 103.063 440.581V494.805C103.063 499.434 106.811 503.191 111.449 503.191C116.077 503.191 119.834 499.434 119.834 494.805V452.331C120.765 452.959 121.696 453.588 122.627 454.209L130.485 459.492C133.663 461.647 136.758 463.937 139.853 466.218C153.279 476.155 167.166 486.42 186.689 486.42C186.731 486.42 186.764 486.411 186.806 486.411C186.849 486.411 186.882 486.42 186.923 486.42C206.446 486.42 220.333 476.155 233.759 466.226C236.854 463.937 239.956 461.648 243.135 459.493L251.176 454.084C252.116 453.455 253.063 452.809 254.011 452.18V494.806C254.011 499.435 257.759 503.192 262.396 503.192C267.025 503.192 270.782 499.435 270.782 494.806V440.582C277.926 435.391 284.929 429.873 291.437 423.693C325.602 391.256 335.195 345.074 337.459 297.224C401 231.577 389.309 148.79 388.127 141.546ZM321.325 268.383C321.325 276.282 321.182 284.333 320.88 292.425C319.111 338.113 310.884 382.097 279.89 411.523C273.206 417.862 265.759 423.573 258.103 428.999C257.927 429.108 257.725 429.167 257.549 429.284C252.325 432.99 247 436.537 241.683 440.093L233.49 445.594C230.127 447.884 226.831 450.315 223.553 452.738C211.829 461.401 200.751 469.585 186.805 469.636C172.86 469.586 161.781 461.401 150.058 452.738C146.779 450.315 143.492 447.883 140.121 445.594L131.978 440.135C118.87 431.372 105.327 422.315 93.956 411.522C55.9341 375.429 52.7471 319.201 52.7471 269.354L52.9732 193.092C52.981 192.966 52.981 192.857 52.9899 192.74C52.9987 190.426 53.2916 188.153 53.6689 185.905C53.7859 185.184 53.8871 184.455 54.0463 183.741C54.5829 181.335 55.2708 178.961 56.2348 176.664C56.2516 176.63 56.2516 176.605 56.2683 176.571C57.1154 174.55 58.2052 172.697 59.3874 170.927C59.7393 170.399 60.1333 169.912 60.5107 169.418C61.4414 168.186 62.4477 167.028 63.5297 165.938C63.9906 165.477 64.4357 165.015 64.9222 164.58C66.3226 163.322 67.8065 162.173 69.3917 161.158C69.5764 161.032 69.7435 160.881 69.9282 160.772C71.6893 159.673 73.585 158.759 75.5298 157.979C76.142 157.719 76.7789 157.535 77.3999 157.317C78.8426 156.813 80.3098 156.386 81.8193 156.05C82.515 155.907 83.203 155.739 83.9076 155.622C85.7021 155.321 87.5299 155.153 89.3922 155.094C89.7607 155.077 90.1135 155.018 90.4909 155.018C91.9581 155.009 93.4676 155.227 94.9604 155.379C95.9411 155.479 96.914 155.462 97.9036 155.63C100.377 156.058 102.868 156.703 105.334 157.601C118.122 162.221 142.702 167.747 187.147 167.747C214.921 167.747 234.939 165.592 249.171 162.841C257.708 161.19 264.165 159.336 268.962 157.601C272.081 156.477 275.226 155.856 278.354 155.462C295.293 153.333 311.662 161.5 318.028 176.561C320.216 181.744 321.324 187.237 321.324 192.905L321.325 268.383Z" fill="black"/>
<path d="M35.3116 706.512C35.3116 713.731 51.2004 720.655 79.4828 725.759C107.765 730.864 146.124 733.732 186.122 733.732C226.119 733.732 264.478 730.864 292.761 725.759C321.043 720.655 336.932 713.731 336.932 706.512C336.932 699.293 321.043 692.37 292.761 687.265C264.478 682.161 226.119 679.293 186.122 679.293C146.124 679.293 107.765 682.161 79.4828 687.265C51.2004 692.37 35.3116 699.293 35.3116 706.512V706.512Z" fill="url(#paint0_radial_17_4)"/>
<path d="M160.111 694.972C160.111 713.268 138.303 715.68 111.43 715.68C84.5569 715.68 62.7492 713.278 62.7492 694.972" fill="#820CE1"/>
<path d="M305.101 694.972C305.101 713.268 283.293 715.68 256.42 715.68C229.547 715.68 207.739 713.278 207.739 694.972" fill="#820CE1"/>
<path d="M354.246 609.537C354.246 620.19 345.6 628.836 334.947 628.836H280.274C269.611 628.836 260.975 620.19 260.975 609.537V458.361C260.975 447.708 269.611 439.062 280.274 439.062H334.947C345.6 439.062 354.246 447.708 354.246 458.361V609.537Z" fill="#2A5263"/>
<path d="M308.392 609.537C308.392 620.19 299.745 628.836 289.093 628.836H234.42C223.768 628.836 215.121 620.19 215.121 609.537V458.361C215.121 447.708 223.768 439.062 234.42 439.062H289.094C299.747 439.062 308.393 447.708 308.393 458.361V609.537H308.392Z" fill="#1A3944"/>
<path d="M197.376 441.899C185.093 428.081 192.889 401.091 214.793 381.59C236.697 362.117 354.467 277.444 366.771 291.225C379.035 305.062 281.152 412.159 259.248 431.632C237.363 451.095 209.66 455.697 197.376 441.899Z" fill="#A3BBC1"/>
<path d="M170.455 441.899C182.738 428.081 174.942 401.091 153.038 381.59C131.133 362.118 13.3641 277.445 1.06005 291.225C-11.2048 305.063 86.6787 412.159 108.583 431.632C130.468 451.095 158.171 455.698 170.455 441.899Z" fill="#A3BBC1"/>
<path d="M154.707 541.471C154.707 565.362 135.331 694.191 111.42 694.191C87.5387 694.191 68.1725 565.352 68.1725 541.471C68.1725 517.589 87.5485 498.203 111.42 498.203C135.331 498.203 154.707 517.589 154.707 541.471Z" fill="#44748E"/>
<path d="M299.688 541.471C299.688 565.362 280.312 694.191 256.401 694.191C232.519 694.191 213.153 565.353 213.153 541.471C213.153 517.589 232.529 498.203 256.401 498.203C280.313 498.203 299.688 517.589 299.688 541.471Z" fill="#44748E"/>
<path d="M305.979 484.298C305.979 639.054 251.345 587.516 183.915 587.516C116.505 587.516 61.8512 639.054 61.8512 484.298C61.8512 395.814 116.525 324.089 183.915 324.089C251.325 324.101 305.979 395.824 305.979 484.298Z" fill="#A3BBC1"/>
<g clip-path="url(#clip1_17_4)">
<path d="M241.276 427.657C246.802 430.599 246.334 451.367 239.803 475.639C239.803 497.588 233.12 530.99 183.84 530.99C134.559 530.99 127.876 497.588 127.876 475.639C121.345 451.367 120.877 430.6 126.403 427.657C130.53 425.457 141.035 431.582 152.958 442.722C161.779 438.657 172.376 436.303 183.84 436.303C195.303 436.303 205.901 438.657 214.721 442.722C226.644 431.582 237.149 425.457 241.276 427.657Z" fill="#718B91"/>
<path d="M209.059 459.944C216.199 459.944 221.988 465.733 221.988 472.873C221.988 480.013 216.199 485.805 209.059 485.805C201.918 485.805 196.127 480.013 196.127 472.873C196.127 465.733 201.918 459.944 209.059 459.944Z" fill="#F4F9FC"/>
<path d="M158.621 459.944C165.761 459.944 171.553 465.733 171.553 472.873C171.553 480.013 165.761 485.805 158.621 485.805C151.481 485.805 145.692 480.013 145.692 472.873C145.692 465.733 151.48 459.944 158.621 459.944Z" fill="#F4F9FC"/>
<path d="M194.421 506.996C189.712 506.996 185.881 503.165 185.881 498.456V494.414C185.881 493.286 184.967 492.372 183.84 492.372C182.712 492.372 181.798 493.286 181.798 494.414V498.456C181.798 503.165 177.967 506.996 173.259 506.996C172.131 506.996 171.217 507.91 171.217 509.038C171.217 510.165 172.131 511.079 173.259 511.079C177.686 511.079 181.586 508.786 183.84 505.327C186.094 508.786 189.993 511.079 194.421 511.079C195.548 511.079 196.462 510.165 196.462 509.038C196.462 507.91 195.548 506.996 194.421 506.996Z" fill="#1A3944"/>
<path d="M158.621 479.315C157.494 479.315 156.58 478.401 156.58 477.274V468.473C156.58 467.346 157.494 466.432 158.621 466.432C159.749 466.432 160.663 467.346 160.663 468.473V477.274C160.663 478.401 159.749 479.315 158.621 479.315Z" fill="#945136"/>
<path d="M209.058 479.315C207.93 479.315 207.016 478.401 207.016 477.274V468.473C207.016 467.346 207.931 466.432 209.058 466.432C210.185 466.432 211.1 467.346 211.1 468.473V477.274C211.1 478.401 210.185 479.315 209.058 479.315Z" fill="#945136"/>
<path d="M190.727 494.795L183.84 499.001L176.952 494.795C176.952 492.473 178.836 490.592 181.158 490.592H186.521C188.843 490.592 190.727 492.473 190.727 494.795Z" fill="#945136"/>
</g>
<path d="M81.6513 329.32C45.1667 305.091 7.71802 283.775 1.06007 291.225C-5.42393 298.53 18.8436 331.868 46.3929 364.569L81.6513 329.32Z" fill="#DDB281"/>
<path d="M324.574 360.797C350.792 329.34 372.994 298.25 366.761 291.225C360.354 284.065 325.462 303.518 290.348 326.57L324.574 360.797Z" fill="#DDB281"/>
<path d="M186.782 389.609C204.768 389.609 219.349 375.028 219.349 357.042C219.349 339.056 204.768 324.475 186.782 324.475C168.796 324.475 154.215 339.056 154.215 357.042C154.215 375.028 168.796 389.609 186.782 389.609Z" fill="#D39959"/>
<path d="M160.111 694.972C160.111 713.268 138.303 715.68 111.43 715.68C84.5569 715.68 62.7492 713.278 62.7492 694.972C62.7492 676.667 84.5569 651.473 111.43 651.473C138.303 651.473 160.111 676.668 160.111 694.972Z" fill="#A746F4"/>
<path d="M305.101 694.972C305.101 713.268 283.293 715.68 256.42 715.68C229.547 715.68 207.739 713.278 207.739 694.972C207.739 676.667 229.547 651.473 256.42 651.473C283.293 651.473 305.101 676.668 305.101 694.972Z" fill="#A746F4"/>
<path d="M320.868 514.163C330.652 523.957 332.987 537.494 326.088 544.413C319.189 551.312 305.641 548.958 295.857 539.174L131.355 374.681C121.551 364.858 119.216 351.33 126.135 344.431C133.024 337.512 146.562 339.847 156.366 349.651L320.868 514.163Z" fill="#44748E"/>
<path d="M341.884 250.34C341.884 327.526 271.155 366.325 183.935 366.325C96.6955 366.325 25.9461 327.526 25.9461 250.34C25.9461 173.136 96.6955 98.1222 183.935 98.1222C271.155 98.1222 341.884 173.136 341.884 250.34Z" fill="#EFC286"/>
<path d="M147.031 240.588C146.279 240.588 145.506 240.317 144.918 239.709C138.019 232.82 128.862 229.027 119.135 229.027H119.116C109.389 229.027 100.252 232.83 93.3904 239.699C92.223 240.867 90.3414 240.896 89.1837 239.709C88.0163 238.58 87.9771 236.698 89.1458 235.521C97.1549 227.502 107.788 223.073 119.107 223.073H119.127C130.474 223.073 141.117 227.474 149.146 235.501C150.294 236.649 150.294 238.57 149.146 239.708C148.576 240.307 147.823 240.588 147.031 240.588Z" fill="#232728"/>
<path d="M241.537 240.588C242.271 240.588 243.043 240.317 243.631 239.709C250.53 232.82 259.687 229.027 269.414 229.027H269.433C279.16 229.027 288.317 232.83 295.178 239.699C296.326 240.867 298.208 240.896 299.385 239.709C300.552 238.58 300.572 236.698 299.404 235.521C291.435 227.502 280.762 223.074 269.443 223.074H269.423C258.096 223.074 247.452 227.474 239.405 235.501C238.275 236.649 238.275 238.57 239.405 239.708C239.994 240.307 240.746 240.588 241.537 240.588Z" fill="#232728"/>
<path d="M44.8 175.642C74.0128 198.566 109.569 150.558 167.134 150.558C213.669 150.558 258.737 166.459 288.557 150.558C299.879 156.602 324.791 199.093 339.2 203.2C315.078 142.682 255.216 94.4 185.014 94.4C125.87 94.4 74.1142 128.697 44.8 175.642Z" fill="black"/>
<path d="M218.049 251.595C209.242 251.595 202.115 247.094 202.115 241.532C202.115 235.979 194.973 231.468 186.181 231.468C177.389 231.468 170.246 235.979 170.246 241.532C170.246 247.094 163.12 251.595 154.312 251.595C145.504 251.595 138.378 247.094 138.378 241.532C138.378 224.884 159.821 211.34 186.181 211.34C212.54 211.34 233.984 224.884 233.984 241.532C233.984 247.094 226.857 251.595 218.049 251.595Z" fill="#5C546A"/>
<path d="M78.8906 246.564H29.8771C24.4881 246.564 20.1277 242.063 20.1277 236.5C20.1277 230.937 24.4881 226.436 29.8771 226.436H78.8906C84.2795 226.436 88.6399 230.937 88.6399 236.5C88.6399 242.063 84.2795 246.564 78.8906 246.564Z" fill="#5C546A"/>
<path d="M337.5 244.048H289.02C283.631 244.048 279.271 239.547 279.271 233.984C279.271 228.421 283.631 223.92 289.02 223.92H337.5C342.889 223.92 347.249 228.421 347.249 233.984C347.249 239.547 342.889 244.048 337.5 244.048Z" fill="#5C546A"/>
<path d="M122.024 276.755C139.393 276.755 153.473 260.985 153.473 241.532C153.473 222.078 139.393 206.308 122.024 206.308C104.655 206.308 90.5744 222.078 90.5744 241.532C90.5744 260.985 104.655 276.755 122.024 276.755Z" fill="#AEEFFF"/>
<path d="M122.024 206.308C113.395 206.308 105.586 210.213 99.904 216.515L144.36 266.306C149.988 259.941 153.473 251.196 153.473 241.532C153.473 222.079 139.394 206.308 122.024 206.308Z" fill="white"/>
<path d="M121.709 294.367C94.8317 294.367 72.9627 271.792 72.9627 244.048C72.9627 216.303 94.8317 193.729 121.709 193.729C148.587 193.729 170.456 216.303 170.456 244.048C170.456 271.792 148.587 294.367 121.709 294.367ZM121.709 213.856C105.582 213.856 92.4614 227.4 92.4614 244.048C92.4614 260.696 105.582 274.239 121.709 274.239C137.837 274.239 150.957 260.696 150.957 244.048C150.957 227.4 137.837 213.856 121.709 213.856Z" fill="#868491"/>
<path d="M247.821 279.271C265.191 279.271 279.271 263.501 279.271 244.048C279.271 224.594 265.191 208.824 247.821 208.824C230.452 208.824 216.372 224.594 216.372 244.048C216.372 263.501 230.452 279.271 247.821 279.271Z" fill="#AEEFFF"/>
<path d="M247.822 208.824C239.193 208.824 231.383 212.729 225.702 219.031L270.158 268.822C275.786 262.457 279.271 253.712 279.271 244.048C279.271 224.594 265.192 208.824 247.822 208.824Z" fill="white"/>
<path d="M250.023 294.367C223.145 294.367 201.276 271.792 201.276 244.048C201.276 216.303 223.145 193.729 250.023 193.729C276.901 193.729 298.77 216.303 298.77 244.048C298.77 271.792 276.901 294.367 250.023 294.367ZM250.023 213.856C233.895 213.856 220.775 227.4 220.775 244.048C220.775 260.696 233.895 274.239 250.023 274.239C266.151 274.239 279.271 260.696 279.271 244.048C279.271 227.4 266.151 213.856 250.023 213.856Z" fill="#868491"/>
<defs>
<radialGradient id="paint0_radial_17_4" cx="0" cy="0" r="1" gradientUnits="userSpaceOnUse" gradientTransform="translate(186.122 706.512) rotate(180) scale(150.81 27.2194)">
<stop stop-opacity="0.321429"/>
<stop offset="1" stop-opacity="0.0714286"/>
</radialGradient>
<clipPath id="clip0_17_4">
<rect width="641.495" height="482.592" fill="white" transform="translate(158.505 98.1222)"/>
</clipPath>
<clipPath id="clip1_17_4">
<rect width="122.501" height="122.501" fill="white" transform="translate(122.589 417.851)"/>
</clipPath>
</defs>
</svg>
