<svg width="500" height="459" viewBox="0 0 500 459" fill="none" xmlns="http://www.w3.org/2000/svg">
<g clip-path="url(#clip0_11_850)">
<path d="M492.446 61.8747C488.374 63.1753 481.295 67.4178 473.026 73.5184C464.851 79.557 455.422 87.082 434.185 104.486C380.686 148.335 348.736 172.892 310.929 199.307C302.504 205.16 281.83 219.219 281.58 219.219C281.517 219.219 281.486 218.197 281.486 216.958C281.486 215.1 281.329 214.481 280.64 213.304C279.575 211.508 277.508 209.65 276.318 209.402L275.409 209.247L277.821 206.863C282.52 202.342 284.806 198.099 286.811 190.234C286.873 190.048 287.719 189.614 288.753 189.212C296.176 186.425 300.75 180.572 300.75 173.852C300.75 169.455 299.309 166.079 296.051 162.828C292.01 158.802 286.247 157.254 279.732 158.492L277.664 158.895L275.19 156.913C273.812 155.86 272.371 154.745 271.932 154.467L271.149 153.94L272.34 152.825C276.318 148.985 276.067 142.049 271.807 137.528C269.583 135.174 267.986 134.524 264.415 134.524C261.627 134.524 261.314 134.586 259.497 135.577C257.085 136.846 254.924 139.076 253.828 141.429C253.107 142.947 252.982 143.628 252.982 146.043V148.892L251.259 149.078C246.247 149.605 242.176 150.781 238.761 152.67C232.967 155.922 228.299 160.939 224.979 167.442C224.259 168.835 223.632 169.981 223.57 169.981C223.507 169.981 222.849 169.764 222.097 169.517C220.155 168.835 214.141 167.349 210.226 166.606C206.029 165.77 200.234 165.119 194.846 164.841L190.587 164.624L191.056 163.106C191.714 160.877 191.432 154.993 190.555 152.33C188.551 146.322 183.758 141.553 177.494 139.447C175.426 138.766 174.424 138.611 171.699 138.58C168.065 138.549 165.935 138.952 163.085 140.253C151.965 145.238 147.799 160.165 154.816 169.826C155.379 170.6 155.755 171.282 155.693 171.344C155.63 171.406 154.221 172.025 152.592 172.768C133.422 181.191 116.821 197.821 107.831 217.578C91.9191 252.571 97.9018 292.487 123.9 324.662C127.126 328.657 135.552 336.987 139.624 340.177C155.348 352.595 171.292 359.5 190.493 362.163C195.911 362.938 209.224 362.938 215.394 362.194C227.422 360.708 237.853 357.704 247.438 352.873C262.003 345.534 274.188 333.643 282.112 319.057L283.303 316.827L289.442 316.673C295.017 316.549 295.926 316.456 299.246 315.589C309.708 312.895 317.883 306.887 322.55 298.433C323.459 296.823 323.897 296.327 324.398 296.327C324.774 296.327 325.463 296.048 325.933 295.677C326.936 294.903 326.998 293.695 326.09 292.735L325.432 292.054L326.09 289.452C328.032 281.68 327.656 272.606 325.15 266.196C324.806 265.391 324.555 264.617 324.555 264.462C324.555 264.338 325.307 264.121 326.246 264.028C331.101 263.533 335.017 259.012 334.484 254.491C334.109 251.549 332.135 248.855 329.316 247.492C327.844 246.78 327.123 246.625 325.181 246.656C321.485 246.656 318.854 248.173 317.319 251.177L316.693 252.385L315.033 250.898C312.965 249.009 308.893 246.315 305.385 244.457L302.692 243.033L303.6 240.493C304.132 239.1 305.041 236.777 305.667 235.322C306.262 233.866 306.92 232.318 307.108 231.854C307.39 231.203 307.609 231.048 308.142 231.172C309.457 231.513 310.366 229.686 309.363 228.695C308.925 228.292 309.019 228.014 310.021 226.125C313.059 220.551 317.633 214.295 330.506 198.192L333.795 194.074L344.132 186.115C372.009 164.655 390.365 151.401 449.377 110.122C483.707 86.091 496.675 75.2216 499.306 68.2539C500.152 66.0553 500.12 64.9095 499.275 63.4231C498.084 61.3173 495.798 60.7908 492.446 61.8747ZM325.714 202.404C319.261 210.579 308.361 225.66 304.54 231.668C302.911 234.238 302.504 234.424 303.913 231.977C310.992 219.622 320.608 204.819 322.832 202.775C324.461 201.289 329.097 197.604 329.347 197.573C329.473 197.542 327.844 199.741 325.714 202.404ZM314.469 211.694C310.742 216.989 301.063 231.358 297.273 237.273C295.988 239.255 294.798 240.834 294.61 240.772C294.391 240.679 293.232 240.524 292.01 240.4L289.786 240.184L291.165 239.286C293.952 237.49 295.988 234.61 296.834 231.327C297.367 229.376 297.304 228.633 296.49 225.103C296.333 224.39 297.179 223.616 305.949 216.432C311.243 212.096 316.004 208.164 316.536 207.699C317.069 207.235 317.601 206.832 317.727 206.832C317.821 206.832 316.38 209.031 314.469 211.694Z" fill="#7BBEC8"/>
<path d="M300.436 105.198C297.648 106.127 296.02 107.087 294.297 108.852C290.507 112.692 289.598 117.801 291.728 123.468C292.762 126.255 293.952 128.206 296.928 131.83C297.648 132.728 298.244 133.688 298.244 133.935C298.244 134.926 299.966 137.682 301.564 139.2C305.26 142.761 310.428 144.185 314.344 142.73C319.011 140.996 321.485 136.32 320.514 131.117C320.326 130.095 319.606 128.114 318.885 126.689C317.789 124.552 317.601 123.933 317.758 122.849C318.008 120.991 317.445 116.253 316.693 113.962C315.471 110.153 312.871 107.149 309.583 105.631C307.233 104.578 302.942 104.362 300.436 105.198Z" fill="#7BBEC8"/>
<path d="M245.778 120.248C244.399 120.867 243.522 121.951 243.084 123.561C242.739 124.8 242.771 125.203 243.24 126.441C245.182 131.489 252.512 130.157 252.512 124.738C252.512 123.097 251.76 121.517 250.539 120.681C249.38 119.876 247.062 119.659 245.778 120.248Z" fill="#7BBEC8"/>
<path d="M341 143.318C339.59 144.155 339.026 144.929 338.713 146.384C338.18 148.614 339.12 150.998 340.874 151.896C342.096 152.516 344.758 152.454 345.917 151.772C347.985 150.596 348.736 146.942 347.327 144.867C345.98 142.854 342.942 142.111 341 143.318Z" fill="#7BBEC8"/>
<path d="M364.022 204.014C360.827 205.686 360.89 210.641 364.116 212.313C366.277 213.428 369.253 212.716 370.725 210.765C371.696 209.495 371.633 206.708 370.631 205.315C369.284 203.457 366.215 202.837 364.022 204.014Z" fill="#7BBEC8"/>
<path d="M411.852 207.266C409.221 208.226 406.934 210.424 405.995 212.871L405.682 213.707L404.773 212.468C402.205 209 395.627 208.442 392.401 211.415C389.143 214.45 389.206 220.829 392.526 224.576C394.186 226.434 396.316 227.301 399.135 227.301C402.487 227.301 405.368 225.753 406.308 223.523C406.684 222.687 407.248 222.285 407.248 222.904C407.248 223.059 407.874 223.833 408.657 224.638C412.667 228.695 419.15 229.066 422.909 225.443C425.039 223.399 425.822 221.139 425.666 217.671C425.446 213.242 423.191 209.619 419.495 207.73C417.741 206.832 413.669 206.584 411.852 207.266Z" fill="#7BBEC8"/>
<path d="M329.347 217.206C328.345 217.887 327.906 219.683 328.439 220.891C329.003 222.254 329.692 222.718 331.164 222.718C332.605 222.718 333.795 221.789 334.108 220.458C334.359 219.374 333.607 217.516 332.762 217.082C331.822 216.587 330.13 216.68 329.347 217.206Z" fill="#7BBEC8"/>
<path d="M403.896 234.548C402.111 235.291 401.234 237.459 401.923 239.471C402.612 241.546 405.18 242.599 407.31 241.732C408.782 241.113 409.534 239.936 409.534 238.264C409.534 236.53 408.782 235.415 407.154 234.672C405.587 233.99 405.212 233.959 403.896 234.548Z" fill="#7BBEC8"/>
<path d="M387.733 259.476C385.854 259.972 384.257 260.901 383.004 262.294C381.25 264.183 380.529 266.01 380.373 268.921C380.153 273.257 381.907 276.663 385.353 278.521C387.514 279.667 391.523 279.977 394.029 279.171C402.142 276.508 402.674 263.75 394.844 260.188C392.964 259.352 389.644 259.012 387.733 259.476Z" fill="#7BBEC8"/>
<path d="M355.878 306.825C349.989 308.621 347.045 315.465 349.676 321.163C350.741 323.485 352.15 324.941 354.249 325.963C355.847 326.737 356.379 326.83 359.01 326.83C361.61 326.799 362.174 326.706 363.583 325.994C365.87 324.817 367.655 322.68 368.407 320.234C369.221 317.695 369.19 315.806 368.376 313.173C367.499 310.386 364.993 307.785 362.456 307.042C360.733 306.515 357.256 306.423 355.878 306.825Z" fill="#7BBEC8"/>
</g>
<path d="M242.579 88.4661C241.72 78.5706 238.229 71.3585 232.202 67.0136C225.818 62.4224 216.787 61.3795 206.084 64.0102C204.617 64.3615 203.045 64.0992 201.766 63.2713C200.545 62.4906 199.732 61.3003 199.475 59.9275C194.601 34.0356 174.873 15.4608 142.419 6.19977C118.666 -0.57248 96.6264 -0.00126777 95.9717 0.0202295C92.916 -0.037506 21.1269 -1.16458 2.13741 34.2297C1.44581 35.5294 1.41387 37.1018 1.90708 38.4911C2.39968 39.8853 3.54211 41.0382 4.90503 41.6094C5.11448 41.6985 25.5817 51.0805 22.7828 117.141C22.6833 118.205 22.6415 119.284 22.636 120.364C22.636 120.422 22.6255 120.49 22.6255 120.553L22.4842 168.332C22.4842 204.13 26.0012 240.593 51.5049 264.807C55.5722 268.67 59.9435 272.119 64.4143 275.363V309.253C64.4143 312.146 66.7569 314.494 69.6554 314.494C72.5483 314.494 74.8964 312.146 74.8964 309.253V282.707C75.478 283.1 76.0597 283.493 76.642 283.88L81.5532 287.182C83.5395 288.529 85.4736 289.96 87.4078 291.386C95.7991 297.597 104.478 304.012 116.68 304.012C116.707 304.012 116.728 304.007 116.754 304.007C116.78 304.007 116.801 304.012 116.827 304.012C129.029 304.012 137.708 297.597 146.1 291.391C148.034 289.96 149.973 288.53 151.959 287.183L156.985 283.802C157.572 283.409 158.164 283.006 158.757 282.613V309.254C158.757 312.147 161.099 314.495 163.998 314.495C166.89 314.495 169.239 312.147 169.239 309.254V275.364C173.704 272.119 178.081 268.671 182.148 264.808C203.501 244.535 209.497 215.671 210.912 185.765C250.625 144.735 243.318 92.994 242.579 88.4661ZM200.828 167.739C200.828 172.676 200.739 177.708 200.55 182.766C199.444 211.32 194.303 238.81 174.931 257.202C170.754 261.164 166.099 264.733 161.314 268.124C161.204 268.192 161.078 268.229 160.968 268.302C157.703 270.619 154.375 272.836 151.052 275.058L145.931 278.496C143.829 279.927 141.769 281.447 139.72 282.961C132.393 288.376 125.47 293.491 116.753 293.523C108.037 293.491 101.113 288.376 93.7863 282.961C91.7367 281.447 89.6822 279.927 87.5755 278.496L82.4861 275.084C74.2939 269.607 65.8295 263.947 58.7225 257.201C34.9588 234.643 32.9669 199.501 32.9669 168.346L33.1082 120.682C33.1131 120.604 33.1131 120.536 33.1186 120.463C33.1242 119.016 33.3072 117.595 33.543 116.191C33.6161 115.74 33.6794 115.284 33.7789 114.838C34.1143 113.334 34.5442 111.851 35.1467 110.415C35.1572 110.394 35.1572 110.378 35.1676 110.357C35.6971 109.094 36.3782 107.936 37.1171 106.83C37.337 106.499 37.5833 106.195 37.8192 105.886C38.4008 105.116 39.0298 104.392 39.706 103.711C39.9941 103.423 40.2723 103.135 40.5763 102.862C41.4516 102.076 42.379 101.358 43.3697 100.724C43.4852 100.645 43.5896 100.551 43.7051 100.482C44.8058 99.7957 45.9906 99.2245 47.2061 98.7368C47.5887 98.5741 47.9867 98.4592 48.3749 98.3228C49.2766 98.0084 50.1936 97.7412 51.137 97.5311C51.5719 97.4421 52.0018 97.337 52.4422 97.2639C53.5637 97.0754 54.7062 96.9704 55.8701 96.9335C56.1004 96.9231 56.3209 96.8862 56.5568 96.8862C57.4738 96.8807 58.4172 97.017 59.3502 97.1116C59.9632 97.1743 60.5712 97.1638 61.1897 97.2689C62.7357 97.5361 64.2927 97.9396 65.8338 98.5003C73.8264 101.388 89.189 104.842 116.967 104.842C134.326 104.842 146.837 103.495 155.732 101.776C161.067 100.743 165.103 99.585 168.101 98.5003C170.051 97.7983 172.016 97.4101 173.971 97.1638C184.558 95.8329 194.789 100.938 198.767 110.351C200.135 113.59 200.827 117.023 200.827 120.566L200.828 167.739Z" fill="black"/>
<path d="M22.0697 441.57C22.0697 446.082 32.0003 450.409 49.6768 453.6C67.3532 456.79 91.3277 458.582 116.326 458.582C141.324 458.582 165.299 456.79 182.975 453.6C200.652 450.409 210.582 446.082 210.582 441.57C210.582 437.058 200.652 432.731 182.975 429.541C165.299 426.35 141.324 424.558 116.326 424.558C91.3277 424.558 67.3532 426.35 49.6768 429.541C32.0003 432.731 22.0697 437.058 22.0697 441.57V441.57Z" fill="url(#paint0_radial_11_850)"/>
<path d="M100.069 434.358C100.069 445.792 86.4395 447.3 69.6438 447.3C52.8481 447.3 39.2183 445.799 39.2183 434.358" fill="#820CE1"/>
<path d="M190.688 434.358C190.688 445.792 177.058 447.3 160.263 447.3C143.467 447.3 129.837 445.799 129.837 434.358" fill="#820CE1"/>
<path d="M221.404 380.961C221.404 387.619 216 393.022 209.342 393.022H175.171C168.507 393.022 163.109 387.619 163.109 380.961V286.475C163.109 279.817 168.507 274.414 175.171 274.414H209.342C216 274.414 221.404 279.817 221.404 286.475V380.961Z" fill="#2A5263"/>
<path d="M192.745 380.961C192.745 387.619 187.341 393.022 180.683 393.022H146.513C139.855 393.022 134.451 387.619 134.451 380.961V286.475C134.451 279.817 139.855 274.414 146.513 274.414H180.684C187.342 274.414 192.745 279.817 192.745 286.475V380.961H192.745Z" fill="#1A3944"/>
<path d="M123.36 276.187C115.683 267.55 120.555 250.682 134.246 238.494C147.936 226.323 221.542 173.403 229.232 182.015C236.897 190.664 175.72 257.6 162.03 269.77C148.352 281.934 131.038 284.811 123.36 276.187Z" fill="#A3BBC1"/>
<path d="M106.534 276.187C114.211 267.551 109.339 250.682 95.6486 238.494C81.9583 226.323 8.35258 173.403 0.662562 182.015C-7.00296 190.664 54.1742 257.6 67.8645 269.77C81.5426 281.934 98.8566 284.811 106.534 276.187Z" fill="#A3BBC1"/>
<path d="M96.6921 338.419C96.6921 353.351 84.5821 433.869 69.6377 433.869C54.7117 433.869 42.6078 353.345 42.6078 338.419C42.6078 323.493 54.7178 311.377 69.6377 311.377C84.5821 311.377 96.6921 323.493 96.6921 338.419Z" fill="#44748E"/>
<path d="M187.305 338.419C187.305 353.351 175.195 433.869 160.25 433.869C145.324 433.869 133.221 353.345 133.221 338.419C133.221 323.493 145.331 311.377 160.25 311.377C175.196 311.377 187.305 323.493 187.305 338.419Z" fill="#44748E"/>
<path d="M191.237 302.686C191.237 399.409 157.091 367.198 114.947 367.198C72.8158 367.198 38.657 399.409 38.657 302.686C38.657 247.384 72.828 202.556 114.947 202.556C157.078 202.563 191.237 247.39 191.237 302.686Z" fill="#A3BBC1"/>
<g clip-path="url(#clip1_11_850)">
<path d="M150.797 267.285C154.251 269.125 153.959 282.105 149.877 297.274C149.877 310.992 145.7 331.869 114.9 331.869C84.0993 331.869 79.9224 310.993 79.9224 297.274C75.8408 282.105 75.5481 269.125 79.002 267.285C81.5814 265.911 88.147 269.739 95.599 276.701C101.112 274.161 107.735 272.689 114.9 272.689C122.064 272.689 128.688 274.161 134.2 276.701C141.652 269.739 148.218 265.911 150.797 267.285Z" fill="#718B91"/>
<path d="M130.662 287.465C135.124 287.465 138.742 291.083 138.742 295.546C138.742 300.008 135.124 303.628 130.662 303.628C126.199 303.628 122.579 300.008 122.579 295.546C122.579 291.083 126.199 287.465 130.662 287.465Z" fill="#F4F9FC"/>
<path d="M99.138 287.465C103.601 287.465 107.221 291.083 107.221 295.546C107.221 300.008 103.601 303.628 99.138 303.628C94.6754 303.628 91.0573 300.008 91.0573 295.546C91.0573 291.083 94.6752 287.465 99.138 287.465Z" fill="#F4F9FC"/>
<path d="M121.513 316.872C118.57 316.872 116.176 314.478 116.176 311.535V309.009C116.176 308.304 115.605 307.733 114.9 307.733C114.195 307.733 113.624 308.304 113.624 309.009V311.535C113.624 314.478 111.23 316.872 108.287 316.872C107.582 316.872 107.011 317.444 107.011 318.148C107.011 318.853 107.582 319.424 108.287 319.424C111.054 319.424 113.491 317.991 114.9 315.829C116.309 317.991 118.746 319.424 121.513 319.424C122.218 319.424 122.789 318.853 122.789 318.148C122.789 317.444 122.218 316.872 121.513 316.872Z" fill="#1A3944"/>
<path d="M99.1383 299.572C98.4335 299.572 97.8623 299.001 97.8623 298.296V292.796C97.8623 292.091 98.4337 291.52 99.1383 291.52C99.8429 291.52 100.414 292.091 100.414 292.796V298.296C100.414 299.001 99.8431 299.572 99.1383 299.572Z" fill="#945136"/>
<path d="M130.661 299.572C129.957 299.572 129.385 299.001 129.385 298.296V292.796C129.385 292.091 129.957 291.52 130.661 291.52C131.366 291.52 131.937 292.091 131.937 292.796V298.296C131.937 299.001 131.366 299.572 130.661 299.572Z" fill="#945136"/>
<path d="M119.204 309.247L114.9 311.876L110.595 309.247C110.595 307.796 111.772 306.62 113.224 306.62H116.576C118.027 306.62 119.204 307.796 119.204 309.247Z" fill="#945136"/>
</g>
<path d="M51.032 205.825C28.2292 190.682 4.82376 177.36 0.662545 182.015C-3.38995 186.581 11.7772 207.418 28.9956 227.856L51.032 205.825Z" fill="#DDB281"/>
<path d="M202.859 225.498C219.245 205.837 233.121 186.406 229.226 182.015C225.221 177.54 203.414 189.699 181.468 204.106L202.859 225.498Z" fill="#DDB281"/>
<path d="M116.739 243.506C127.98 243.506 137.093 234.393 137.093 223.151C137.093 211.91 127.98 202.797 116.739 202.797C105.497 202.797 96.3845 211.91 96.3845 223.151C96.3845 234.393 105.497 243.506 116.739 243.506Z" fill="#D39959"/>
<path d="M100.069 434.358C100.069 445.792 86.4395 447.3 69.6438 447.3C52.8481 447.3 39.2183 445.798 39.2183 434.358C39.2183 422.917 52.8481 407.171 69.6438 407.171C86.4395 407.171 100.069 422.918 100.069 434.358Z" fill="#A746F4"/>
<path d="M190.688 434.358C190.688 445.792 177.058 447.3 160.263 447.3C143.467 447.3 129.837 445.798 129.837 434.358C129.837 422.917 143.467 407.171 160.263 407.171C177.058 407.171 190.688 422.918 190.688 434.358Z" fill="#A746F4"/>
<path d="M200.543 321.352C206.658 327.473 208.117 335.934 203.805 340.258C199.493 344.57 191.026 343.099 184.911 336.984L82.0967 234.176C75.9694 228.036 74.5101 219.581 78.8344 215.269C83.1403 210.945 91.6013 212.404 97.7287 218.532L200.543 321.352Z" fill="#44748E"/>
<path d="M213.678 156.462C213.678 204.704 169.472 228.953 114.959 228.953C60.4347 228.953 16.2163 204.704 16.2163 156.462C16.2163 108.21 60.4347 61.3264 114.959 61.3264C169.472 61.3264 213.678 108.21 213.678 156.462Z" fill="#EFC286"/>
<path d="M91.8946 150.367C91.4245 150.367 90.9413 150.198 90.5738 149.818C86.2618 145.512 80.5387 143.142 74.4596 143.142H74.4473C68.3682 143.142 62.6573 145.518 58.369 149.812C57.6393 150.542 56.4633 150.56 55.7398 149.818C55.0102 149.112 54.9857 147.936 55.7161 147.2C60.7218 142.189 67.3675 139.421 74.4419 139.421H74.4542C81.5463 139.421 88.1981 142.171 93.216 147.188C93.9334 147.906 93.9334 149.106 93.216 149.817C92.86 150.192 92.3892 150.367 91.8946 150.367Z" fill="#232728"/>
<path d="M150.961 150.367C151.419 150.367 151.902 150.198 152.269 149.818C156.581 145.512 162.304 143.142 168.384 143.142H168.396C174.475 143.142 180.198 145.518 184.486 149.812C185.204 150.542 186.38 150.56 187.116 149.818C187.845 149.112 187.857 147.936 187.128 147.201C182.147 142.189 175.476 139.421 168.402 139.421H168.39C161.31 139.421 154.657 142.171 149.628 147.188C148.922 147.906 148.922 149.106 149.628 149.817C149.996 150.192 150.466 150.367 150.961 150.367Z" fill="#232728"/>
<path d="M31.3896 107.854C48.8009 120.983 69.9929 93.4883 104.302 93.4883C132.038 93.4883 158.9 102.595 176.672 93.4883C183.421 96.9497 198.269 121.285 206.857 123.637C192.48 88.978 156.801 61.3264 114.959 61.3264C79.7088 61.3264 48.8614 80.9687 31.3896 107.854Z" fill="black"/>
<path d="M136.281 157.247C130.776 157.247 126.322 154.434 126.322 150.957C126.322 147.487 121.858 144.667 116.363 144.667C110.868 144.667 106.404 147.487 106.404 150.957C106.404 154.434 101.95 157.247 96.4449 157.247C90.9401 157.247 86.4859 154.434 86.4859 150.957C86.4859 140.552 99.8883 132.088 116.363 132.088C132.838 132.088 146.24 140.552 146.24 150.957C146.24 154.434 141.786 157.247 136.281 157.247Z" fill="#5C546A"/>
<path d="M49.3065 154.102H18.6731C15.305 154.102 12.5798 151.289 12.5798 147.812C12.5798 144.336 15.305 141.522 18.6731 141.522H49.3065C52.6746 141.522 55.3999 144.336 55.3999 147.812C55.3999 151.289 52.6746 154.102 49.3065 154.102Z" fill="#5C546A"/>
<path d="M210.937 152.53H180.638C177.27 152.53 174.544 149.717 174.544 146.24C174.544 142.763 177.27 139.95 180.638 139.95H210.937C214.306 139.95 217.031 142.763 217.031 146.24C217.031 149.717 214.306 152.53 210.937 152.53Z" fill="#5C546A"/>
<path d="M76.2649 172.972C87.1205 172.972 95.9207 163.116 95.9207 150.957C95.9207 138.799 87.1205 128.943 76.2649 128.943C65.4092 128.943 56.609 138.799 56.609 150.957C56.609 163.116 65.4092 172.972 76.2649 172.972Z" fill="#AEEFFF"/>
<path d="M76.2648 128.943C70.8717 128.943 65.9909 131.383 62.44 135.322L90.2248 166.441C93.7426 162.463 95.9207 156.998 95.9207 150.957C95.9207 138.799 87.121 128.943 76.2648 128.943Z" fill="white"/>
<path d="M76.0683 183.979C59.2698 183.979 45.6017 169.87 45.6017 152.53C45.6017 135.189 59.2698 121.08 76.0683 121.08C92.8669 121.08 106.535 135.189 106.535 152.53C106.535 169.87 92.8669 183.979 76.0683 183.979ZM76.0683 133.66C65.9884 133.66 57.7883 142.125 57.7883 152.53C57.7883 162.935 65.9884 171.399 76.0683 171.399C86.1482 171.399 94.3483 162.935 94.3483 152.53C94.3483 142.125 86.1482 133.66 76.0683 133.66Z" fill="#868491"/>
<path d="M154.888 174.544C165.744 174.544 174.544 164.688 174.544 152.53C174.544 140.371 165.744 130.515 154.888 130.515C144.033 130.515 135.233 140.371 135.233 152.53C135.233 164.688 144.033 174.544 154.888 174.544Z" fill="#AEEFFF"/>
<path d="M154.889 130.515C149.495 130.515 144.615 132.955 141.064 136.895L168.848 168.014C172.366 164.036 174.544 158.57 174.544 152.53C174.544 140.371 165.745 130.515 154.889 130.515Z" fill="white"/>
<path d="M156.264 183.979C139.466 183.979 125.798 169.87 125.798 152.53C125.798 135.189 139.466 121.08 156.264 121.08C173.063 121.08 186.731 135.189 186.731 152.53C186.731 169.87 173.063 183.979 156.264 183.979ZM156.264 133.66C146.184 133.66 137.984 142.125 137.984 152.53C137.984 162.935 146.184 171.399 156.264 171.399C166.344 171.399 174.544 162.935 174.544 152.53C174.544 142.125 166.344 133.66 156.264 133.66Z" fill="#868491"/>
<defs>
<radialGradient id="paint0_radial_11_850" cx="0" cy="0" r="1" gradientUnits="userSpaceOnUse" gradientTransform="translate(116.326 441.57) rotate(180) scale(94.2563 17.0121)">
<stop stop-opacity="0.321429"/>
<stop offset="1" stop-opacity="0.0714286"/>
</radialGradient>
<clipPath id="clip0_11_850">
<rect width="400.934" height="301.62" fill="white" transform="translate(99.0657 61.3264)"/>
</clipPath>
<clipPath id="clip1_11_850">
<rect width="76.5634" height="76.5634" fill="white" transform="translate(76.6181 261.157)"/>
</clipPath>
</defs>
</svg>
