<svg width="309" height="200" viewBox="0 0 309 200" fill="none" xmlns="http://www.w3.org/2000/svg">
<path d="M308.518 187.081C308.518 190.436 299.264 193.652 282.793 196.024C266.322 198.396 243.982 199.728 220.688 199.728C197.394 199.728 175.055 198.396 158.583 196.024C142.112 193.652 132.859 190.436 132.859 187.081C132.859 183.727 142.112 180.511 158.583 178.139C175.055 175.767 197.394 174.435 220.688 174.435C243.982 174.435 266.322 175.767 282.793 178.139C299.264 180.511 308.518 183.727 308.518 187.081V187.081Z" fill="url(#paint0_radial_11_839)"/>
<path d="M271.51 71.8547C271.734 71.6247 271.928 71.4191 272.092 71.2419C274.419 73.1741 276.255 76.2164 277.635 80.1983C279.148 84.5657 280.079 89.9667 280.537 96.0308C281.453 108.157 280.469 122.774 278.62 136.719C276.771 150.657 274.065 163.875 271.559 173.187C270.303 177.853 269.108 181.497 268.11 183.755C267.692 184.701 267.34 185.327 267.074 185.684C263.791 182.465 260.8 179.503 258.063 176.794C250.813 169.615 245.345 164.201 240.943 160.43C234.877 155.233 230.521 152.86 226.018 153.586C223.794 153.944 221.647 155.043 219.343 156.711C217.041 158.378 214.511 160.667 211.528 163.484C210.539 164.418 209.497 165.413 208.393 166.468C202.98 171.639 196.072 178.238 186.575 186.063C185.587 184.411 184.933 182.302 184.58 179.791C184.162 176.822 184.174 173.357 184.509 169.561C185.18 161.966 187.13 153.174 189.369 144.61C190.706 139.498 192.13 134.523 193.443 129.937C194.337 126.812 195.18 123.867 195.909 121.181C196.8 117.896 197.516 115.012 197.919 112.733C198.121 111.594 198.249 110.58 198.277 109.729C198.304 108.905 198.244 108.113 197.977 107.495L197.728 106.919L197.101 106.893C187.853 106.502 180.537 108.608 174.494 110.348C173.419 110.657 172.384 110.955 171.385 111.226C168.053 112.127 165.188 112.707 162.53 112.495C159.937 112.289 157.486 111.323 154.985 109.012C155.077 108.764 155.286 108.375 155.665 107.833C156.546 106.572 158.099 104.822 160.169 102.737C164.294 98.5825 170.326 93.2375 176.707 88.0533C183.089 82.8688 189.791 77.8691 195.251 74.3965C197.986 72.6571 200.377 71.3221 202.243 70.535C203.179 70.1403 203.942 69.901 204.527 69.8057C205.068 69.7174 205.327 69.774 205.424 69.8148C225.995 85.9646 242.813 86.276 254.553 82.3881C260.396 80.453 264.93 77.4947 268.003 75.0227C269.54 73.7858 270.715 72.6677 271.51 71.8547ZM266.814 185.969C266.814 185.969 266.817 185.967 266.822 185.964C266.816 185.968 266.814 185.969 266.814 185.969ZM154.931 109.205C154.931 109.205 154.931 109.204 154.932 109.201L154.931 109.205Z" fill="#7BBEC8" stroke="#820CE1" stroke-width="2"/>
<path d="M-1.90735e-06 187.081C-1.90735e-06 190.508 9.44132 193.793 26.247 196.216C43.0526 198.639 65.846 200 89.6128 200C113.38 200 136.173 198.639 152.979 196.216C169.784 193.793 179.226 190.508 179.226 187.081C179.226 183.655 169.784 180.369 152.979 177.946C136.173 175.524 113.38 174.163 89.6128 174.163C65.846 174.163 43.0526 175.524 26.247 177.946C9.44132 180.369 -1.90735e-06 183.655 -1.90735e-06 187.081V187.081Z" fill="url(#paint1_radial_11_839)"/>
<path d="M123.726 186.063C114.229 178.238 107.321 171.639 101.908 166.468C100.804 165.413 99.7619 164.418 98.7729 163.484C95.7903 160.667 93.2599 158.378 90.9577 156.711C88.6535 155.043 86.5066 153.944 84.283 153.586C79.7804 152.86 75.4241 155.233 69.3575 160.43C64.9554 164.201 59.488 169.615 52.238 176.794C49.5012 179.503 46.5104 182.465 43.227 185.684C42.9607 185.327 42.6092 184.701 42.1913 183.755C41.193 181.497 39.9981 177.853 38.7424 173.187C36.236 163.875 33.5298 150.657 31.6814 136.719C29.8321 122.774 28.8479 108.157 29.7639 96.0308C30.2219 89.9667 31.1525 84.5657 32.6659 80.1983C34.0457 76.2164 35.8818 73.1741 38.209 71.2419C38.3725 71.4191 38.5668 71.6247 38.7914 71.8547C39.5856 72.6677 40.7608 73.7858 42.2981 75.0227C45.3705 77.4947 49.9045 80.453 55.7478 82.3881C67.4874 86.276 84.3058 85.9646 104.877 69.8148C104.974 69.774 105.233 69.7174 105.774 69.8057C106.359 69.901 107.122 70.1403 108.058 70.535C109.924 71.3221 112.315 72.6571 115.05 74.3965C120.51 77.8691 127.212 82.8688 133.594 88.0533C139.975 93.2375 146.007 98.5825 150.132 102.737C152.202 104.822 153.755 106.572 154.636 107.833C155.015 108.375 155.224 108.764 155.316 109.012C152.815 111.323 150.364 112.289 147.771 112.495C145.113 112.707 142.247 112.127 138.916 111.226C137.917 110.955 136.882 110.657 135.807 110.348C129.764 108.608 122.448 106.502 113.2 106.893L112.573 106.919L112.324 107.495C112.057 108.113 111.997 108.905 112.024 109.729C112.052 110.58 112.18 111.594 112.382 112.733C112.785 115.012 113.501 117.896 114.392 121.181C115.121 123.867 115.964 126.812 116.858 129.937C118.171 134.523 119.595 139.498 120.932 144.61C123.171 153.174 125.121 161.966 125.791 169.561C126.127 173.357 126.139 176.822 125.721 179.791C125.368 182.302 124.714 184.411 123.726 186.063ZM155.37 109.205C155.37 109.205 155.369 109.204 155.369 109.201L155.37 109.205ZM43.4868 185.969C43.4869 185.969 43.4845 185.968 43.4797 185.964C43.4844 185.967 43.4868 185.969 43.4868 185.969Z" fill="#7BBEC8" stroke="#820CE1" stroke-width="2"/>
<path d="M31.125 42.7305C31.125 53.8029 35.4587 64.4189 43.1682 72.2438C50.8771 80.0682 61.3295 84.4611 72.2251 84.4611C83.1207 84.4611 93.5731 80.0682 101.282 72.2438C108.992 64.4189 113.325 53.8029 113.325 42.7305C113.325 31.6582 108.992 21.0422 101.282 13.2173C93.5731 5.39293 83.1207 1 72.2251 1C61.3295 1 50.8771 5.39293 43.1682 13.2173C35.4587 21.0422 31.125 31.6582 31.125 42.7305Z" fill="#7BBEC8" stroke="#820CE1" stroke-width="2"/>
<path d="M279.176 42.7305C279.176 53.8029 274.842 64.4189 267.133 72.2438C259.424 80.0682 248.971 84.4611 238.076 84.4611C227.18 84.4611 216.728 80.0682 209.019 72.2438C201.309 64.4189 196.975 53.8029 196.975 42.7305C196.975 31.6582 201.309 21.0422 209.019 13.2173C216.728 5.39293 227.18 1 238.076 1C248.971 1 259.424 5.39293 267.133 13.2173C274.842 21.0422 279.176 31.6582 279.176 42.7305Z" fill="#7BBEC8" stroke="#820CE1" stroke-width="2"/>
<defs>
<radialGradient id="paint0_radial_11_839" cx="0" cy="0" r="1" gradientUnits="userSpaceOnUse" gradientTransform="translate(220.688 187.081) scale(87.8294 12.6466)">
<stop stop-opacity="0.321429"/>
<stop offset="1" stop-opacity="0.0714286"/>
</radialGradient>
<radialGradient id="paint1_radial_11_839" cx="0" cy="0" r="1" gradientUnits="userSpaceOnUse" gradientTransform="translate(89.6128 187.081) rotate(180) scale(89.6128 12.9186)">
<stop stop-opacity="0.321429"/>
<stop offset="1" stop-opacity="0.0714286"/>
</radialGradient>
</defs>
</svg>
